HIERARCHY
ROOT root
{
	OFFSET 0.000000 0.000000 0.000000
	CHANNELS 6 Xposition Yposition Zposition Zrotation Yrotation Xrotation
	JOINT lhip
	{
		OFFSET 0.058581 -0.082280 -0.017664
		CHANNELS 3 Zrotation Yrotation Xrotation
		JOINT lknee
		{
			OFFSET 0.043451 -0.386469 0.008037
			CHANNELS 3 Zrotation Yrotation Xrotation
			JOINT lankle
			{
				OFFSET -0.014790 -0.426874 -0.037428
				CHANNELS 3 Zrotation Yrotation Xrotation
				JOINT ltoe
				{
					OFFSET 0.041054 -0.060286 0.122042
					CHANNELS 3 Zrotation Yrotation Xrotation
					End Site
					{
						OFFSET 0.000000 0.000000 0.000000
					}
				}
			}
		}
	}
	JOINT rhip
	{
		OFFSET -0.060310 -0.090513 -0.013543
		CHANNELS 3 Zrotation Yrotation Xrotation
		JOINT rknee
		{
			OFFSET -0.043257 -0.383688 -0.004843
			CHANNELS 3 Zrotation Yrotation Xrotation
			JOINT rankle
			{
				OFFSET 0.019056 -0.420046 -0.034562
				CHANNELS 3 Zrotation Yrotation Xrotation
				JOINT rtoe
				{
					OFFSET -0.034840 -0.062106 0.130323
					CHANNELS 3 Zrotation Yrotation Xrotation
					End Site
					{
						OFFSET 0.000000 0.000000 0.000000
					}
				}
			}
		}
	}
	JOINT lowerback
	{
		OFFSET 0.004439 0.124404 -0.038385
		CHANNELS 3 Zrotation Yrotation Xrotation
		JOINT upperback
		{
			OFFSET 0.004488 0.137956 0.026820
			CHANNELS 3 Zrotation Yrotation Xrotation
			JOINT chest
			{
				OFFSET -0.002265 0.056032 0.002855
				CHANNELS 3 Zrotation Yrotation Xrotation
				JOINT lowerneck
				{
					OFFSET -0.013390 0.211636 -0.033468
					CHANNELS 3 Zrotation Yrotation Xrotation
					JOINT upperneck
					{
						OFFSET 0.010113 0.088937 0.050410
						CHANNELS 3 Zrotation Yrotation Xrotation
						End Site
						{
							OFFSET 0.000000 0.000000 0.000000
						}
					}
				}
				JOINT lclavicle
				{
					OFFSET 0.071702 0.114000 -0.018898
					CHANNELS 3 Zrotation Yrotation Xrotation
					JOINT lshoulder
					{
						OFFSET 0.122921 0.045205 -0.019046
						CHANNELS 3 Zrotation Yrotation Xrotation
						JOINT lelbow
						{
							OFFSET 0.255332 -0.015649 -0.022946
							CHANNELS 3 Zrotation Yrotation Xrotation
							JOINT lwrist
							{
								OFFSET 0.265709 0.012698 -0.007375
								CHANNELS 3 Zrotation Yrotation Xrotation
								End Site
								{
									OFFSET 0.000000 0.000000 0.000000
								}
							}
						}
					}
				}
				JOINT rclavicle
				{
					OFFSET -0.082954 0.112472 -0.023707
					CHANNELS 3 Zrotation Yrotation Xrotation
					JOINT rshoulder
					{
						OFFSET -0.113228 0.046853 -0.008472
						CHANNELS 3 Zrotation Yrotation Xrotation
						JOINT relbow
						{
							OFFSET -0.260127 -0.014369 -0.031269
							CHANNELS 3 Zrotation Yrotation Xrotation
							JOINT rwrist
							{
								OFFSET -0.269108 0.006794 -0.006027
								CHANNELS 3 Zrotation Yrotation Xrotation
								End Site
								{
									OFFSET 0.000000 0.000000 0.000000
								}
							}
						}
					}
				}
			}
		}
	}
}
MOTION
Frames: 7
Frame Time: 0.033333
1.284460 1.007921 1.024829 9.332608 -7.898157 87.576449 3.542050 -3.550238 -11.907796 -5.768161 -10.375757 18.508309 0.407011 8.760753 -11.415964 0.000000 -0.000000 0.000000 -5.463792 2.716965 1.934695 4.324577 11.323492 47.005356 3.374235 -5.110209 -18.512237 0.000000 -0.000000 0.000000 -4.374609 4.702645 10.737674 3.872204 -0.739972 -2.548251 -0.020306 0.199441 -0.207148 8.645343 -11.164311 -5.744616 2.278023 -20.838625 3.700231 -25.249177 14.418788 1.482028 -52.993776 10.548425 10.477631 -2.955921 -27.106048 21.818830 -7.410728 -7.521280 -10.981854 27.770083 -5.777483 -3.720360 52.553598 -2.452000 15.643227 -14.020804 43.810285 -1.167384 -1.700673 3.944678 -6.821146 
1.300839 0.995308 1.024986 6.000414 -8.051503 87.642010 2.835999 -2.601318 -11.183291 -6.265918 -8.735576 20.457805 1.164593 9.304578 -13.120042 0.000000 -0.000000 0.000000 -5.713627 1.353677 -2.064919 0.733198 6.595841 53.866434 2.071850 -11.469018 -14.866807 0.000000 -0.000000 0.000000 -4.977981 3.753319 11.937091 4.017144 -1.368380 -3.057375 0.224865 -0.319455 0.208640 8.977375 -12.180539 -6.417616 2.090549 -21.292636 3.616902 -24.884256 13.324713 2.097694 -52.739004 8.776377 9.738798 -2.852190 -27.569476 22.172052 -6.636552 -7.598101 -11.322312 27.816191 -4.621790 -3.958338 54.744830 -1.231425 15.159773 -16.764573 38.808140 -5.754710 -3.433707 3.012464 -4.957719 
1.313679 0.982570 1.028602 1.733858 -7.526984 87.037557 2.582065 -0.835663 -8.463716 -5.805532 -7.493034 20.415399 1.677786 10.474681 -14.193427 0.000000 -0.000000 0.000000 -6.651152 -0.893264 -4.870185 -2.351162 1.682613 58.232489 -0.745383 -14.863809 -14.193303 0.000000 -0.000000 0.000000 -4.483868 3.017847 13.739745 3.795312 -1.541360 -3.178980 0.337843 -0.721318 0.218295 8.600410 -12.835399 -6.593649 2.432980 -21.395349 3.839977 -24.424305 11.310043 3.056956 -52.173512 7.337101 8.784388 -2.495154 -27.944031 21.166752 -7.179492 -8.381374 -12.350507 27.424273 -3.086121 -3.360259 56.183497 -0.914604 14.274589 -17.373945 35.706403 -7.877097 -3.372361 3.172592 -4.935359 
1.323864 0.972937 1.033127 -2.880544 -6.695632 87.336639 2.744763 0.961149 -6.125178 -5.067277 -7.033737 19.066165 2.014586 12.190822 -14.903032 0.000000 -0.000000 0.000000 -6.861361 -2.316044 -8.499050 -0.455077 -0.678747 61.043729 1.732130 -12.483967 -13.802192 0.000000 -0.000000 0.000000 -3.880716 2.132741 14.277971 3.859234 -1.513249 -2.829903 0.321924 -0.832061 0.198992 8.773303 -13.094561 -6.571609 2.281595 -20.560451 4.110550 -24.624758 9.291155 2.783341 -50.524111 6.328698 8.503312 -1.340277 -27.943621 17.588409 -3.671564 -6.925699 -9.811095 27.602776 -1.894211 -3.326079 55.363292 -1.346636 13.845925 -16.025611 34.914283 -7.571532 -1.711698 2.898312 -4.467766 
1.331631 0.964178 1.038502 -7.632298 -5.943168 87.768829 2.986104 3.025390 -3.764936 -4.416346 -5.681097 16.936170 2.306844 13.572270 -14.906829 0.000000 -0.000000 0.000000 -6.542868 -3.188305 -12.023302 1.284335 -3.564244 61.636417 2.807751 -11.585484 -15.251502 0.000000 -0.000000 0.000000 -3.620354 1.002380 14.801885 3.835606 -1.478099 -2.997287 0.443967 -0.770967 0.298707 8.761936 -12.319399 -6.092909 2.377041 -20.274251 3.900687 -24.671909 8.320544 2.047589 -48.212917 5.418366 8.044041 -0.850370 -27.745063 15.034949 -3.768270 -7.623060 -8.022388 27.849223 -1.515011 -2.993342 54.382318 -1.523253 13.638552 -13.752349 34.790543 -6.325582 -1.783084 2.794436 -3.174223 
1.336081 0.954221 1.044019 -12.206251 -5.116906 88.125763 3.529811 5.102740 -0.671483 -3.927087 -4.441303 13.532449 1.904888 14.490013 -14.378426 0.000000 -0.000000 0.000000 -6.536559 -4.480189 -15.044498 0.663746 -7.943917 60.798683 3.217977 -12.455160 -16.456390 0.000000 -0.000000 0.000000 -3.702845 -0.112573 15.562414 3.886759 -1.337745 -3.822148 0.942341 -1.118687 0.361861 8.294634 -11.815743 -5.700882 2.493469 -19.459371 4.356771 -24.273591 7.943974 2.524088 -46.515932 4.469418 7.079032 0.016418 -27.778917 12.488287 -1.621725 -8.360333 -6.714585 27.886982 -0.916080 -2.788279 52.990527 -1.595300 13.900870 -11.291110 33.551647 -2.854623 -1.809316 4.248068 0.187605 
1.340696 0.945661 1.049209 -16.566859 -4.197708 88.345009 3.969857 6.886351 2.385958 -3.285284 -3.469826 10.241428 1.448150 15.371446 -14.138024 0.000000 -0.000000 0.000000 -6.333489 -5.643537 -16.943822 -0.384691 -11.551215 58.148108 3.198839 -14.029853 -16.553138 0.000000 -0.000000 0.000000 -2.805935 -1.685783 16.975158 3.470361 -1.520131 -4.913612 0.873235 -0.996367 0.180383 7.813498 -10.951819 -5.606308 2.719614 -18.351494 4.568900 -23.435494 7.655519 2.840182 -44.875431 4.327627 6.074521 -0.561904 -28.743075 10.038224 1.751028 -8.270165 -7.740774 28.040925 -0.682328 -2.480643 52.557699 -2.245462 13.883412 -11.033608 33.909039 -3.119714 -4.289699 4.531513 1.945234 
